<svg width="400" height="500" viewBox="0 0 400 500" fill="none" xmlns="http://www.w3.org/2000/svg">
<path d="M177.595 67.1453L343.114 359.729L345.081 358.616L179.562 66.0325L177.595 67.1453Z" fill="#FF7B00"/>
<path d="M247.263 71.8749L375.73 297.686L377.691 296.57L249.224 70.7593L247.263 71.8749Z" fill="#FF7B00"/>
<path d="M121.176 85.2621L299.724 398.415L301.684 397.297L123.136 84.1447L121.176 85.2621Z" fill="#FF7B00"/>
<path d="M72.6225 117.297L246.611 423.123L248.572 422.007L74.5834 116.181L72.6225 117.297Z" fill="#FF7B00"/>
<path d="M36.2827 170.492L183.575 427.514L185.536 426.39L38.2435 169.369L36.2827 170.492Z" fill="#FF7B00"/>
<path d="M19.5245 259.218L100.459 398.331L102.413 397.194L21.4781 258.081L19.5245 259.218Z" fill="#FF7B00"/>
<path d="M100.934 398.979H301.622V396.719H100.934V398.979Z" fill="#FF7B00"/>
<path d="M45.9301 340.339L359.862 340.339V338.079L45.9301 338.079V340.339Z" fill="#FF7B00"/>
<path d="M22.826 283.111L380.426 283.111V280.851L22.826 280.851V283.111Z" fill="#FF7B00"/>
<path d="M22.5901 224.519L380.922 224.519V222.243L22.5901 222.243V224.519Z" fill="#FF7B00"/>
<path d="M39.4582 166.623L364.366 166.623V164.343L39.4582 164.343V166.623Z" fill="#FF7B00"/>
<path d="M85.4661 108.411L317.174 108.411V106.151L85.4661 106.151V108.411Z" fill="#FF7B00"/>
<path d="M299.674 398.185L301.643 399.294L384 253.134L382.031 252.025L299.674 398.185Z" fill="#FF7B00"/>
<path d="M217.18 426.884L219.141 428L366.969 168.426L365.009 167.31L217.18 426.884Z" fill="#FF7B00"/>
<path d="M153.48 421.38L155.438 422.5L329.802 117.355L327.843 116.236L153.48 421.38Z" fill="#FF7B00"/>
<path d="M100.217 397.591L102.171 398.719L283.241 85.1683L281.287 84.0401L100.217 397.591Z" fill="#FF7B00"/>
<path d="M55.3762 356.107L57.3213 357.25L227.45 67.7021L225.505 66.5592L55.3762 356.107Z" fill="#FF7B00"/>
<path d="M26.0618 293.451L28.0137 294.582L157.343 71.4158L155.391 70.2847L26.0618 293.451Z" fill="#FF7B00"/>
<path fill-rule="evenodd" clip-rule="evenodd" d="M66.7422 338.583L34.1182 281.683L135.178 107.191L300.386 397.775L233.946 398.871L134.41 223.367L66.7422 338.583Z" fill="#FF7B00"/>
<path d="M135.182 106.351L135.542 106.983L301.098 398.183L233.702 399.295L233.582 399.079L134.406 224.203L66.7421 339.419L33.6381 281.683L33.7581 281.475L135.182 106.351ZM299.674 397.371L135.174 108.031L34.6021 281.687L66.7461 337.751L134.418 222.531L134.774 223.163L234.186 398.451L299.674 397.371Z" fill="#FF7B00"/>
</svg>
